<svg aria-hidden="true" style="position: absolute; width: 0; height: 0; overflow: hidden;" version="1.1" xmlns="http://www.w3.org/2000/svg" xmlns:xlink="http://www.w3.org/1999/xlink">
<defs>
<symbol id="mail" viewBox="0 0 31 32">
<path d="M25.859 6.058h-20.687c-1.422 0-2.573 1.164-2.573 2.586l-0.013 15.515c0 1.422 1.164 2.586 2.586 2.586h20.687c1.422 0 2.586-1.164 2.586-2.586v-15.515c0-1.422-1.164-2.586-2.586-2.586zM25.341 11.553l-9.141 5.715c-0.414 0.259-0.957 0.259-1.37 0l-9.141-5.715c-0.13-0.073-0.243-0.171-0.334-0.289s-0.156-0.253-0.193-0.397-0.044-0.294-0.021-0.441c0.023-0.147 0.075-0.288 0.154-0.414s0.182-0.235 0.304-0.32c0.122-0.085 0.26-0.144 0.406-0.174s0.296-0.030 0.441-0c0.146 0.030 0.284 0.089 0.406 0.173l8.663 5.417 8.663-5.417c0.122-0.085 0.26-0.144 0.406-0.173s0.296-0.030 0.442 0c0.146 0.030 0.284 0.089 0.406 0.174s0.226 0.194 0.304 0.32 0.131 0.267 0.154 0.414c0.023 0.147 0.016 0.297-0.021 0.441s-0.102 0.279-0.193 0.397c-0.091 0.118-0.204 0.216-0.334 0.289z"></path>
</symbol>
<symbol id="linkedin" viewBox="0 0 32 32">
<path  d="M29.783 0h-26.706c-1.459 0-2.734 1.050-2.734 2.492v26.766c0 1.45 1.275 2.742 2.734 2.742h26.699c1.467 0 2.567-1.301 2.567-2.742v-26.766c0.009-1.442-1.1-2.492-2.559-2.492zM10.262 26.674h-4.584v-14.254h4.584v14.254zM8.128 10.253h-0.033c-1.467 0-2.417-1.092-2.417-2.459 0-1.392 0.975-2.459 2.475-2.459s2.418 1.059 2.451 2.459c-0.001 1.367-0.951 2.459-2.476 2.459zM27.016 26.674h-4.584v-7.794c0-1.867-0.667-3.143-2.326-3.143-1.267 0-2.017 0.857-2.351 1.692-0.125 0.3-0.159 0.708-0.159 1.126v8.119h-4.584v-14.254h4.584v1.983c0.667-0.95 1.709-2.317 4.134-2.317 3.009 0 5.286 1.984 5.286 6.26l-0.001 8.327z"></path>
</symbol>
<symbol id="youtube" viewBox="0 0 42 32">
<path d="M40.5 7.066c0-3.75-2.586-6.766-5.781-6.766-4.328-0.216-8.742-0.299-13.253-0.299h-1.406c-4.5 0-8.922 0.083-13.25 0.3-3.188 0-5.773 3.033-5.773 6.783-0.195 2.966-0.278 5.932-0.273 8.899-0.008 2.967 0.081 5.936 0.266 8.908 0 3.75 2.586 6.791 5.773 6.791 4.547 0.225 9.211 0.325 13.953 0.317 4.75 0.017 9.401-0.089 13.953-0.317 3.195 0 5.781-3.041 5.781-6.791 0.188-2.975 0.273-5.941 0.266-8.916 0.018-2.967-0.067-5.936-0.255-8.908zM16.935 24.157v-16.375l11.328 8.183-11.328 8.191z"></path>
</symbol>
<symbol id="facebook" viewBox="0 0 32 32">
<path d="M30.234 0h-28.468c-0.468 0-0.918 0.186-1.249 0.517s-0.517 0.78-0.517 1.249v28.468c0 0.468 0.186 0.917 0.517 1.249s0.78 0.517 1.249 0.517h15.326v-12.392h-4.17v-4.829h4.17v-3.562c0-4.133 2.524-6.384 6.212-6.384 1.766 0 3.284 0.131 3.727 0.19v4.32l-2.557 0.001c-2.005 0-2.393 0.953-2.393 2.351v3.084h4.782l-0.623 4.829h-4.16v12.392h8.155c0.468-0 0.917-0.186 1.249-0.517s0.517-0.78 0.517-1.249v-28.468c0-0.468-0.186-0.918-0.517-1.249s-0.78-0.517-1.249-0.517z"></path>
</symbol>
<symbol id="hamburger-menu" viewBox="0 0 34 32">
<path d="M7.385 0h18.872c2.266 0 4.103 1.837 4.103 4.103v17.231c0 2.266-1.837 4.103-4.103 4.103h-18.872c-2.266 0-4.103-1.837-4.103-4.103v-17.231c0-2.266 1.837-4.103 4.103-4.103z"></path>
<path fill="none" stroke="#1d1d1d" style="stroke: var(--color3, #1d1d1d)" stroke-linejoin="miter" stroke-linecap="round" stroke-miterlimit="4" stroke-width="2.4615" d="M8.615 5.333h16.41"></path>
<path fill="none" stroke="#1d1d1d" style="stroke: var(--color3, #1d1d1d)" stroke-linejoin="miter" stroke-linecap="round" stroke-miterlimit="4" stroke-width="2.4615" d="M8.615 12.718h16.41"></path>
<path fill="none" stroke="#1d1d1d" style="stroke: var(--color3, #1d1d1d)" stroke-linejoin="miter" stroke-linecap="round" stroke-miterlimit="4" stroke-width="2.4615" d="M8.615 20.103h16.41"></path>
</symbol>
<symbol id="dropdown" viewBox="0 0 59 32">
<path stroke-linejoin="miter" stroke-linecap="butt" stroke-miterlimit="4" stroke-width="4.5714" d="M4.571 3.429l25.143 25.143 25.143-25.143"></path>
</symbol>
<symbol id="logo" viewBox="0 0 81 32">
<path fill="#000" style="fill: var(--color4, #000)" d="M46.548 9.927v-2.68c0-0.020 0.007-0.027 0.027-0.027h1.815c0.020 0 0.040 0.020 0.040 0.040v3.713c0 0.033-0.013 0.060-0.040 0.080-1.133 0.893-2.408 1.26-3.825 1.1-1.396-0.16-2.698-0.96-3.487-2.080-1.538-2.187-1.072-5.233 1.106-6.82 1.895-1.38 4.384-1.307 6.212 0.173 0.014 0.013 0.020 0.033 0.007 0.047l-0.978 1.613c-0.014 0.020-0.034 0.027-0.047 0.007-0.573-0.54-1.221-0.847-1.943-0.907-1.774-0.147-3.325 1.24-3.339 3.007-0.020 2.253 2.354 3.76 4.418 2.767 0.027-0.007 0.034-0.020 0.034-0.033z"></path>
<path fill="#000" style="fill: var(--color4, #000)" d="M15.763 8.78c-0.277 1.627-1.578 2.88-3.197 3.153-2.044 0.34-3.959-0.96-4.425-2.94-0.067-0.293-0.101-0.7-0.101-1.213 0.007-1.74 0.007-3.533 0-5.367 0-0.027 0.014-0.040 0.040-0.040h1.868c0.020 0 0.034 0.013 0.034 0.033 0.007 1.747 0.007 3.567-0.007 5.453 0 0.38 0.027 0.66 0.094 0.847 0.277 0.833 1.066 1.393 1.949 1.347 0.823-0.040 1.558-0.6 1.774-1.393 0.047-0.18 0.074-0.413 0.074-0.687-0.007-1.727-0.007-3.58 0-5.567 0-0.020 0.014-0.033 0.034-0.033h1.855c0.040 0 0.061 0.020 0.061 0.067-0.007 1.807-0.007 3.613 0 5.427 0 0.38-0.020 0.68-0.054 0.913z"></path>
<path fill="#000" style="fill: var(--color4, #000)" d="M23.075 11.413c-0.978 0.86-2.381 0.913-3.447 0.267-0.634-0.387-1.059-0.953-1.275-1.707-0.067-0.233-0.101-0.593-0.101-1.073 0.007-2.253 0.007-4.42 0-6.487 0-0.027 0.014-0.040 0.040-0.040h1.855c0.034 0 0.047 0.013 0.047 0.047 0 2.167 0 4.427 0 6.8 0 0.84 0.965 1.28 1.599 0.747 0.364-0.307 0.344-0.627 0.337-1.133 0-1.973 0-4.113 0-6.427 0-0.020 0.013-0.033 0.034-0.033h1.868c0.027 0 0.034 0.013 0.034 0.033 0 2.587 0 4.847 0 6.793 0 0.573 0.432 1.027 1.018 1 0.526-0.027 0.924-0.447 0.924-0.967 0-2.153 0-4.427 0-6.82 0-0.027 0.013-0.040 0.040-0.040h1.841c0.040 0 0.061 0.020 0.061 0.060 0 2.14 0 4.407-0.007 6.787 0 1.62-1.309 2.933-2.961 2.9-0.715-0.020-1.329-0.253-1.848-0.707-0.013-0.027-0.034-0.027-0.061 0z"></path>
<path fill="#000" style="fill: var(--color4, #000)" d="M32.363 10.107v1.86c0 0.007-0.007 0.013-0.014 0.013h-1.889c-0.020 0-0.040-0.013-0.040-0.033 0.007-1.913 0.007-3.773 0-5.58-0.007-1.393 0.546-2.487 1.639-3.287 1.086-0.787 2.617-0.933 3.865-0.353 1.14 0.527 1.976 1.56 2.199 2.787 0.047 0.26 0.067 0.66 0.067 1.187-0.007 1.907-0.007 3.66-0.007 5.26 0 0.013-0.013 0.027-0.027 0.027h-1.895c-0.013 0-0.027-0.013-0.027-0.027v-1.86c0-0.027-0.013-0.040-0.040-0.040h-3.797c-0.020 0-0.034 0.013-0.034 0.047zM32.37 8.14l3.851 0.007c0.007 0 0.020-0.007 0.020-0.020v-1.88c0-1.073-0.863-1.947-1.936-1.947h-0.007c-1.072 0-1.943 0.867-1.943 1.94v1.88c0 0.013 0.007 0.020 0.014 0.020z"></path>
<path fill="#000" style="fill: var(--color4, #000)" d="M56.43 10.060h-3.804c-0.027 0-0.041 0.013-0.041 0.040v1.84c0 0.027-0.014 0.040-0.040 0.040h-1.875c-0.014 0-0.020-0.007-0.020-0.020 0-2.007 0-3.92 0-5.753 0-2.007 1.599-3.727 3.656-3.833 1.943-0.093 3.595 1.167 4.027 3.027 0.061 0.273 0.094 0.68 0.088 1.227-0.007 1.807-0.007 3.58-0.007 5.313 0 0.027-0.014 0.040-0.040 0.040h-1.868c-0.020 0-0.034-0.013-0.034-0.033v-1.847c0-0.027-0.014-0.040-0.040-0.040zM52.605 8.147l3.845-0.007c0.014 0 0.027-0.013 0.027-0.027v-1.88c0-1.073-0.87-1.94-1.943-1.94h-0.020c-1.072 0-1.936 0.873-1.936 1.947v1.88c0.007 0.013 0.014 0.027 0.027 0.027z"></path>
<path fill="#fff" style="fill: var(--color5, #fff)" d="M73.049 13.487c0 3.267 0 6.54-0.013 9.813 0 0.44-0.094 0.82-0.277 1.147-0.229 0.413-0.6 0.707-1.113 0.88-0.209 0.073-0.492 0.107-0.857 0.107-2.732-0.007-5.268-0.007-7.608 0-0.951 0.007-1.578-0.433-1.888-1.3-0.115-0.333-0.175-0.653-0.175-0.967 0.007-3.247 0.007-6.48 0-9.693 0-2.927 0-5.827 0-8.72 0-1.24 0.742-2.2 2.084-2.193 2.53 0.007 5.093 0.007 7.689-0.007 0.371 0 0.654 0.033 0.843 0.1 0.735 0.267 1.133 0.92 1.261 1.647 0.034 0.18 0.047 0.507 0.047 0.987 0 2.74 0 5.467 0.007 8.2zM61.643 24.433c0.31 0.547 0.837 0.807 1.457 0.807 2.583-0.007 5.187-0.007 7.825 0 0.85 0 1.558-0.433 1.821-1.247 0.067-0.213 0.101-0.493 0.101-0.833 0.007-6.167 0.007-12.273 0.007-18.313 0-0.507-0.142-1-0.425-1.427-0.297-0.44-0.782-0.66-1.45-0.66-2.408 0.007-4.937 0.007-7.588 0-0.31 0-0.567 0.027-0.762 0.087-0.62 0.18-1.025 0.58-1.207 1.193-0.067 0.227-0.101 0.573-0.101 1.033 0.007 5.933 0.007 11.88 0 17.847-0.014 0.553 0.054 1.033 0.324 1.513z"></path>
<path fill="#1d1d1b" style="fill: var(--color6, #1d1d1b)" d="M63.101 25.24c-0.628 0-1.147-0.26-1.457-0.807-0.27-0.48-0.337-0.96-0.337-1.52 0.007-5.967 0.007-11.92 0-17.847 0-0.46 0.033-0.807 0.101-1.033 0.189-0.613 0.587-1.013 1.208-1.193 0.202-0.060 0.459-0.087 0.762-0.087 2.651 0.007 5.18 0.007 7.588 0 0.675 0 1.16 0.22 1.45 0.66 0.283 0.427 0.425 0.927 0.425 1.427 0 6.047 0 12.147-0.007 18.313 0 0.347-0.034 0.62-0.101 0.833-0.256 0.813-0.965 1.247-1.821 1.247-2.617 0-5.227 0-7.811 0.007zM70.844 21.747c0.911-0.313 1.261-1.14 1.261-2.040-0.007-4.44-0.007-8.96 0-13.567 0-0.907-0.209-2.040-1.201-2.387-0.182-0.067-0.486-0.093-0.924-0.093-1.99 0.013-3.953 0.013-5.882 0-0.324 0-0.593 0.033-0.796 0.107-0.931 0.327-1.241 1.173-1.241 2.080 0 4.487 0 8.987 0 13.513 0 0.32 0.020 0.6 0.054 0.833 0.108 0.653 0.459 1.32 1.113 1.553 0.182 0.067 0.445 0.1 0.782 0.1 1.963-0.013 3.986-0.013 6.064 0 0.324-0.007 0.573-0.033 0.769-0.1zM68.166 23.467c0-0.6-0.492-1.080-1.093-1.080-0.607 0-1.093 0.487-1.093 1.080 0 0.6 0.492 1.080 1.093 1.080s1.093-0.487 1.093-1.080z"></path>
<path fill="#fff" style="fill: var(--color5, #fff)" d="M72.105 19.7c0 0.9-0.351 1.733-1.261 2.040-0.196 0.067-0.445 0.1-0.762 0.093-2.084-0.013-4.108-0.007-6.064 0-0.337 0-0.594-0.033-0.782-0.1-0.661-0.24-1.005-0.9-1.113-1.553-0.040-0.233-0.061-0.507-0.054-0.833 0-4.527 0-9.027 0-13.513 0-0.907 0.31-1.76 1.241-2.080 0.202-0.073 0.472-0.107 0.796-0.107 1.936 0.013 3.899 0.013 5.882 0 0.432 0 0.742 0.027 0.924 0.093 0.992 0.353 1.201 1.48 1.201 2.387-0.014 4.613-0.014 9.14-0.007 13.573zM65.292 6.813c-0.142 0.307-0.195 0.667-0.169 1.067 0.061 0.807 0.122 1.573 0.189 2.3 0.297 3.047 0.614 6.080 0.958 9.1 0.027 0.213 0.094 0.42 0.216 0.62 0.283 0.473 0.877 0.467 1.16 0 0.142-0.233 0.196-0.473 0.229-0.747 0.351-3.093 0.675-6.187 0.965-9.28 0.047-0.467 0.088-0.947 0.128-1.453 0.040-0.513 0.047-0.853 0.027-1.033-0.094-0.8-0.54-1.287-1.349-1.453-0.863-0.187-1.969 0.020-2.354 0.88z"></path>
<path fill="#1d1d1b" style="fill: var(--color6, #1d1d1b)" d="M65.292 6.813c0.392-0.86 1.498-1.073 2.361-0.887 0.803 0.167 1.255 0.653 1.349 1.453 0.020 0.18 0.013 0.527-0.027 1.033-0.041 0.5-0.081 0.987-0.128 1.453-0.297 3.093-0.614 6.187-0.965 9.28-0.034 0.273-0.081 0.513-0.229 0.747-0.29 0.467-0.877 0.467-1.16 0-0.122-0.2-0.189-0.407-0.216-0.62-0.344-3.013-0.661-6.047-0.958-9.1-0.067-0.727-0.135-1.493-0.189-2.3-0.034-0.393 0.020-0.747 0.162-1.060z"></path>
<path fill="#e30613" style="fill: var(--color7, #e30613)" d="M61.117 13.407c0 3.213 0 6.44 0 9.693 0 0.313 0.061 0.633 0.175 0.967 0.31 0.873 0.937 1.307 1.888 1.3 2.341-0.007 4.877-0.007 7.608 0 0.364 0 0.648-0.033 0.857-0.107 0.512-0.173 0.884-0.467 1.113-0.88 0.182-0.327 0.27-0.707 0.277-1.147 0.007-3.273 0.013-6.547 0.013-9.813 1.019 0 1.949 0.307 2.806 0.907 0.789 0.553 1.281 1.267 1.49 2.127 0.061 0.26 0.094 0.567 0.094 0.907-0.007 2.66-0.007 5.407 0 8.24 0 0.52-0.027 0.907-0.088 1.16-0.31 1.253-1.254 1.873-2.374 2.387-0.398 0.18-0.823 0.313-1.275 0.387-0.607 0.1-1.369 0.067-2.043 0.067-0.007-0.020-0.007-0.047-0.007-0.067s-0.007-0.033-0.027-0.040c-0.924-0.173-1.848-0.34-2.772-0.5-6.34-1.113-12.674-2.227-19.014-3.34 0 0-0.088-0.013-0.256-0.033-0.148-0.020-0.283-0.067-0.391-0.133 0.978-0.187 1.713-0.667 2.206-1.44 1.201-1.893 0.324-4.687-2.104-5.107-1.747-0.3-3.372 0.767-3.75 2.473-0.229 1.027-0.040 1.967 0.56 2.82 0.236 0.34 0.6 0.653 1.1 0.94l-4.033-0.693v-3.72c0-0.027 0.013-0.040 0.033-0.040h1.896c0.027 0 0.040-0.013 0.040-0.040v-1.52c0-0.020-0.014-0.033-0.033-0.033h-1.889c-0.027 0-0.047-0.020-0.047-0.047-0.007-0.24-0.014-0.473 0.081-0.693 0.135-0.333 0.364-0.56 0.688-0.673 0.175-0.067 0.445-0.093 0.803-0.087 0.297 0.007 0.567 0.007 0.816 0 0.027 0 0.041-0.013 0.041-0.040v-1.507c0-0.027-0.020-0.047-0.047-0.047-0.634 0.007-1.362-0.060-1.956 0.113-1.133 0.333-1.99 1.327-2.043 2.52-0.007 0.133-0.007 0.267-0.007 0.4 0 0.040-0.020 0.060-0.061 0.060h-0.681c-0.027 0-0.041 0.013-0.041 0.040v1.507c0 0.027 0.014 0.047 0.047 0.047h0.695c0.027 0 0.041 0.020 0.041 0.040v3.427l-1.336-0.213c0.007-0.047 0.007-0.093-0.007-0.14-0.007-0.020-0.020-0.027-0.040-0.033-0.303-0.007-0.621-0.007-0.951 0-0.277 0.007-0.499-0.027-0.668-0.087-0.344-0.133-0.58-0.373-0.708-0.72-0.061-0.173-0.088-0.473-0.081-0.893 0.013-0.453 0.013-0.893 0-1.333 0-0.020 0.013-0.033 0.033-0.033h2.374c0.033 0 0.047-0.013 0.047-0.047v-1.507c0-0.027-0.020-0.047-0.047-0.047h-2.381c-0.014 0-0.027-0.013-0.027-0.027v-2.46c0-0.013-0.007-0.020-0.020-0.020h-1.551c-0.020 0-0.034 0.013-0.034 0.033l-0.007 2.4c0 0.040-0.020 0.067-0.067 0.067h-0.681c-0.020 0-0.040 0.020-0.040 0.040v1.513c0 0.020 0.020 0.040 0.040 0.040h0.701c0.027 0 0.047 0.020 0.047 0.047 0 0.68 0 1.367 0.007 2.053 0 0.073 0.027 0.22 0.074 0.44l-3.818-0.66c0.007-0.293-0.020-0.6 0.027-0.873 0.074-0.44 0.324-0.747 0.755-0.92 0.162-0.067 0.391-0.093 0.688-0.087 0.411 0.007 0.796 0.007 1.16 0 0.007 0 0.014-0.007 0.014-0.013v-1.547c0-0.020-0.014-0.033-0.034-0.033-0.358 0.007-0.722 0.007-1.099 0-0.843-0.013-1.538 0.167-2.165 0.707-0.020 0.020-0.047 0.020-0.061-0.007l-0.472-0.667c-0.020-0.027-0.040-0.033-0.067-0.033h-0.31c-0.027 0-0.047 0.013-0.047 0.047v3.127l-1.221-0.22v-2.907c0-0.027-0.013-0.040-0.040-0.040h-0.303c-0.034 0-0.061 0.013-0.081 0.033l-0.58 0.693c-0.007 0.013-0.027 0.013-0.040 0.007-0.357-0.347-0.769-0.607-1.228-0.787-0.459-0.173-0.897-0.233-1.309-0.18-1.295 0.167-2.185 0.853-2.678 2.060-0.358-0.127-0.735-0.2-1.14-0.22-0.189-0.613-0.546-1.073-1.079-1.387-0.904-0.527-2.165-0.473-2.846 0.373-0.007 0.007-0.020 0.007-0.027 0-0.317-0.393-0.735-0.607-1.228-0.68-0.695-0.1-1.329 0.080-1.916 0.533-0.020 0.013-0.040 0.013-0.054-0.007l-0.384-0.42c-0.013-0.020-0.034-0.027-0.061-0.027h-0.324c-0.027 0-0.040 0.013-0.040 0.033s0 0.040 0 0.053l-10.765-2.16c-0.020-0.76 0.229-1.453 0.762-2.080 0.796-0.94 1.875-1.413 3.083-1.533 0.169-0.020 0.553-0.027 1.14-0.027 17.564-0.007 35.129-0.007 52.686-0.007zM53.691 19.7l-0.472-0.54c-0.020-0.020-0.040-0.033-0.067-0.033h-0.317c-0.027 0-0.033 0.013-0.033 0.033v6.2c0 0.020 0.013 0.033 0.033 0.033h1.558c0.014 0 0.027-0.013 0.027-0.027 0.007-1.113 0.007-2.273 0-3.487 0-0.207 0.027-0.38 0.094-0.52 0.337-0.78 1.376-1.027 1.99-0.38 0.222 0.233 0.337 0.507 0.337 0.807 0.007 1.193 0.007 2.387 0 3.58 0 0.013 0.014 0.027 0.027 0.027h1.565c0.014 0 0.027-0.013 0.027-0.027-0.007-0.98-0.007-1.96 0-2.947 0.007-0.593-0.020-1.007-0.081-1.247-0.499-2.080-3.002-2.86-4.634-1.467-0.020 0.013-0.041 0.013-0.054-0.007z"></path>
<path fill="#fff" style="fill: var(--color5, #fff)" d="M43.169 24.48v0.867c0 0.033-0.020 0.053-0.054 0.053h-1.531c-0.020 0-0.040-0.020-0.040-0.040v-4.593c0-0.027-0.020-0.040-0.041-0.040h-0.695c-0.027 0-0.047-0.013-0.047-0.047v-1.507c0-0.027 0.013-0.040 0.040-0.040h0.681c0.040 0 0.061-0.020 0.061-0.060 0-0.133 0-0.267 0.007-0.4 0.054-1.193 0.911-2.187 2.044-2.52 0.593-0.173 1.322-0.107 1.956-0.113 0.027 0 0.047 0.020 0.047 0.047v1.507c0 0.027-0.014 0.040-0.041 0.040-0.25 0.007-0.526 0.007-0.816 0-0.357-0.007-0.62 0.020-0.803 0.087-0.317 0.12-0.546 0.34-0.688 0.673-0.094 0.22-0.081 0.46-0.081 0.693 0 0.027 0.020 0.047 0.047 0.047h1.889c0.020 0 0.033 0.013 0.033 0.033v1.52c0 0.027-0.013 0.040-0.040 0.040h-1.896c-0.027 0-0.033 0.013-0.033 0.040v3.713z"></path>
<path fill="#fff" style="fill: var(--color5, #fff)" d="M40.207 23.973v1.387c0 0.013-0.014 0.027-0.027 0.027-0.459 0.007-0.89 0.007-1.295 0-1.268-0.027-2.327-0.92-2.657-2.12-0.047-0.22-0.074-0.367-0.074-0.44-0.007-0.693-0.007-1.373-0.007-2.053 0-0.027-0.020-0.047-0.047-0.047h-0.702c-0.020 0-0.040-0.020-0.040-0.040v-1.513c0-0.020 0.020-0.040 0.040-0.040h0.681c0.040 0 0.067-0.020 0.067-0.067l0.007-2.4c0-0.020 0.013-0.033 0.034-0.033h1.552c0.013 0 0.020 0.007 0.020 0.020v2.46c0 0.013 0.014 0.027 0.027 0.027h2.381c0.027 0 0.047 0.020 0.047 0.047v1.507c0 0.033-0.014 0.047-0.047 0.047h-2.374c-0.020 0-0.034 0.013-0.034 0.033 0.014 0.44 0.014 0.88 0 1.333-0.007 0.42 0.014 0.72 0.081 0.893 0.122 0.347 0.358 0.587 0.709 0.72 0.168 0.067 0.391 0.093 0.667 0.087 0.331-0.007 0.648-0.007 0.951 0 0.020 0 0.033 0.013 0.040 0.033 0.007 0.040 0.014 0.087 0 0.133z"></path>
<path fill="#bd1d1d" style="fill: var(--color8, #bd1d1d)" d="M3.447 17.053l10.758 2.16v6.153c0 0.013 0.014 0.027 0.027 0.027h1.565c0.013 0 0.027-0.013 0.027-0.027 0-1.3 0-2.607 0-3.907 0-1.127 1.605-1.113 1.605 0.007 0 1.453 0 2.747 0 3.893 0 0.027 0.013 0.040 0.040 0.040h1.551c0.014 0 0.027-0.013 0.027-0.027 0-1.307 0-2.613 0-3.927 0-0.26 0.094-0.467 0.277-0.633 0.405-0.367 1.079-0.193 1.268 0.307 0.040 0.113 0.067 0.24 0.067 0.38-0.007 1.46-0.007 2.74 0 3.86 0 0.027 0.013 0.033 0.034 0.033h1.531c0.027 0 0.040-0.013 0.040-0.040 0-1.24 0-2.48 0-3.727 0-0.36-0.034-0.66-0.094-0.893 0.405 0.013 0.782 0.087 1.14 0.22-0.324 0.973-0.297 1.887 0.081 2.747 0.405 0.927 1.16 1.513 2.26 1.753 1.059 0.227 2.071-0.16 2.86-0.887 0.020-0.013 0.047-0.013 0.061 0 0 0 0 0 0 0.007l0.58 0.8c0.013 0.020 0.034 0.027 0.054 0.027h0.337c0.014 0 0.027-0.013 0.027-0.027v-3.287l1.221 0.22v3.053c0 0.027 0.013 0.040 0.040 0.040h1.531c0.027 0 0.034-0.013 0.034-0.033v-2.753l3.818 0.66c0.331 1.207 1.383 2.1 2.658 2.12 0.405 0.007 0.837 0.007 1.295 0 0.014 0 0.027-0.013 0.027-0.027v-1.387l1.335 0.213v1.167c0 0.020 0.020 0.040 0.041 0.040h1.531c0.033 0 0.054-0.020 0.054-0.053v-0.867l4.020 0.693c0.628 0.293 1.288 0.4 1.99 0.313 0.108 0.073 0.243 0.12 0.391 0.133 0.169 0.020 0.256 0.033 0.256 0.033 6.34 1.113 12.674 2.227 19.014 3.34 0.924 0.16 1.848 0.327 2.772 0.5 0.020 0.007 0.034 0.013 0.027 0.040 0 0.020 0 0.040 0.007 0.067-21.227 0-42.447 0-63.674 0-0.621 0-1.072-0.027-1.342-0.073-1.754-0.313-2.84-1.647-3.13-3.38-0.047-0.267-0.067-0.64-0.067-1.133 0-2.513 0.007-5.040 0.014-7.58 0.020-0.107 0.020-0.233 0.014-0.38zM11.406 23.133c0.553 0.007 0.364 0.667-0.094 0.667-1.255 0-2.469 0-3.629 0-0.020 0-0.027 0.007-0.027 0.027v1.553c0 0.013 0.007 0.020 0.020 0.020 1.201 0 2.401 0 3.595 0 0.722 0 1.295-0.28 1.713-0.84 0.661-0.9 0.432-2.147-0.533-2.727-0.317-0.193-0.695-0.287-1.14-0.293-0.519-0.007-1.052-0.007-1.605 0-0.573 0.007-0.573-0.807-0.020-0.807 1.133 0 2.206 0 3.217 0 0.027 0 0.034-0.013 0.034-0.033v-1.52c0-0.027-0.013-0.047-0.047-0.047-1.093 0-2.145 0-3.17 0-0.681 0-1.228 0.253-1.639 0.76-0.344 0.42-0.499 1.020-0.405 1.553 0.175 0.96 0.958 1.687 1.983 1.687 0.587-0.007 1.174-0.007 1.747 0z"></path>
<path fill="#fff" style="fill: var(--color5, #fff)" d="M29.577 22.087v3.287c0 0.013-0.013 0.027-0.027 0.027h-0.337c-0.020 0-0.040-0.007-0.054-0.027l-0.58-0.8c-0.014-0.020-0.040-0.020-0.061-0.007 0 0 0 0-0.007 0-0.796 0.72-1.801 1.113-2.86 0.887-1.099-0.24-1.855-0.82-2.26-1.753-0.378-0.853-0.398-1.773-0.081-2.747 0.492-1.207 1.383-1.893 2.678-2.060 0.418-0.053 0.857 0.007 1.309 0.18 0.465 0.173 0.87 0.44 1.228 0.787 0.014 0.013 0.027 0.013 0.040 0l0.58-0.693c0.020-0.027 0.047-0.033 0.081-0.033h0.303c0.027 0 0.040 0.013 0.040 0.040v2.913h0.007zM24.984 21.247c-0.27 0.52-0.31 1.073-0.115 1.66 0.142 0.413 0.384 0.7 0.735 0.853 1.336 0.587 2.604-0.62 2.287-1.973-0.101-0.347-0.283-0.64-0.546-0.88-0.728-0.64-1.848-0.48-2.361 0.34z"></path>
<path fill="#fff" style="fill: var(--color5, #fff)" d="M49.172 25.493c-0.701 0.087-1.362-0.020-1.99-0.313-0.492-0.293-0.863-0.607-1.1-0.94-0.6-0.853-0.789-1.793-0.56-2.82 0.378-1.707 1.997-2.773 3.75-2.473 2.421 0.42 3.305 3.213 2.104 5.107-0.486 0.78-1.221 1.253-2.206 1.44zM48.727 23.92c0.89-0.027 1.585-0.813 1.558-1.753s-0.769-1.687-1.659-1.66c-0.89 0.027-1.585 0.813-1.558 1.753 0.027 0.947 0.776 1.687 1.659 1.66z"></path>
<path fill="#fff" style="fill: var(--color5, #fff)" d="M53.752 19.713c1.632-1.387 4.128-0.607 4.634 1.467 0.061 0.24 0.088 0.66 0.081 1.247-0.007 0.987-0.007 1.967 0 2.947 0 0.013-0.014 0.027-0.027 0.027h-1.578c-0.014 0-0.027-0.013-0.027-0.027 0-1.193 0-2.387 0-3.58 0-0.3-0.115-0.573-0.337-0.807-0.614-0.647-1.652-0.4-1.99 0.38-0.061 0.14-0.094 0.32-0.094 0.52 0.007 1.213 0.007 2.373 0 3.487 0 0.013-0.014 0.027-0.027 0.027h-1.558c-0.020 0-0.033-0.013-0.033-0.033v-6.2c0-0.027 0.014-0.033 0.033-0.033h0.317c0.027 0 0.054 0.013 0.067 0.033l0.472 0.54c0.020 0.027 0.040 0.027 0.067 0.007z"></path>
<path fill="#fff" style="fill: var(--color5, #fff)" d="M22.158 20.74c0.061 0.24 0.094 0.533 0.094 0.893 0 1.247 0 2.487 0 3.727 0 0.027-0.013 0.040-0.040 0.040h-1.531c-0.027 0-0.034-0.013-0.034-0.033 0-1.113 0-2.4 0-3.86 0-0.14-0.020-0.267-0.067-0.38-0.196-0.5-0.863-0.673-1.268-0.307-0.182 0.167-0.277 0.38-0.277 0.633 0 1.307 0 2.62 0 3.927 0 0.013-0.013 0.027-0.027 0.027h-1.551c-0.027 0-0.040-0.013-0.040-0.040 0-1.14 0-2.44 0-3.893 0-1.12-1.605-1.133-1.605-0.007 0 1.307 0 2.607 0 3.907 0 0.013-0.014 0.027-0.027 0.027h-1.565c-0.013 0-0.027-0.013-0.027-0.027v-6.153c0-0.013 0-0.033 0-0.053 0.007-0.027 0.020-0.033 0.040-0.033h0.324c0.027 0 0.047 0.007 0.061 0.027l0.384 0.42c0.013 0.020 0.034 0.020 0.054 0.007 0.587-0.46 1.221-0.64 1.916-0.533 0.492 0.073 0.911 0.287 1.228 0.68 0.007 0.007 0.020 0.007 0.027 0 0.681-0.84 1.943-0.9 2.846-0.373 0.54 0.3 0.897 0.76 1.086 1.38z"></path>
<path fill="#fff" style="fill: var(--color5, #fff)" d="M11.312 23.807c0.459 0 0.648-0.66 0.094-0.667-0.58-0.007-1.16-0.007-1.747-0.007-1.025 0-1.808-0.727-1.983-1.687-0.094-0.533 0.061-1.133 0.405-1.553 0.411-0.507 0.958-0.76 1.639-0.76 1.018 0 2.077 0 3.17 0 0.027 0 0.047 0.013 0.047 0.047v1.52c0 0.027-0.013 0.033-0.034 0.033-1.012 0-2.084 0-3.217 0-0.553 0-0.553 0.813 0.020 0.807 0.553-0.007 1.093-0.007 1.605 0 0.445 0 0.823 0.1 1.14 0.293 0.965 0.58 1.194 1.833 0.533 2.727-0.418 0.56-0.985 0.847-1.713 0.84-1.194 0-2.394 0-3.595 0-0.013 0-0.020-0.007-0.020-0.020v-1.553c0-0.020 0.007-0.027 0.027-0.027 1.167 0.007 2.374 0.007 3.629 0.007z"></path>
<path fill="#fff" style="fill: var(--color5, #fff)" d="M32.41 22.613v2.753c0 0.027-0.014 0.033-0.034 0.033h-1.531c-0.027 0-0.040-0.013-0.040-0.040v-6.18c0-0.027 0.013-0.047 0.047-0.047h0.31c0.027 0 0.054 0.013 0.067 0.033l0.472 0.667c0.020 0.027 0.040 0.027 0.061 0.007 0.634-0.54 1.322-0.72 2.165-0.707 0.378 0.007 0.749 0.007 1.099 0 0.020 0 0.034 0.013 0.034 0.033v1.547c0 0.007-0.007 0.013-0.013 0.013-0.364 0.007-0.749 0.007-1.16 0-0.303-0.007-0.533 0.020-0.688 0.087-0.432 0.173-0.681 0.48-0.755 0.92-0.054 0.273-0.034 0.587-0.034 0.88z"></path>
<path fill="#e30613" style="fill: var(--color7, #e30613)" d="M27.884 21.787l-2.907-0.54c0.513-0.82 1.632-0.98 2.354-0.34 0.27 0.24 0.452 0.533 0.553 0.88z"></path>
<path fill="#e30613" style="fill: var(--color7, #e30613)" d="M48.733 23.92c0.89-0.026 1.589-0.811 1.56-1.753s-0.773-1.685-1.663-1.659c-0.89 0.026-1.589 0.811-1.56 1.753s0.773 1.685 1.663 1.659z"></path>
<path fill="#bd1d1d" style="fill: var(--color8, #bd1d1d)" d="M24.984 21.247l2.907 0.54c0.317 1.353-0.951 2.56-2.287 1.973-0.351-0.153-0.594-0.44-0.735-0.853-0.196-0.587-0.155-1.14 0.115-1.66z"></path>
<path fill="#fff" style="fill: var(--color5, #fff)" d="M67.073 24.547c0.603 0 1.093-0.484 1.093-1.080s-0.489-1.080-1.093-1.080c-0.603 0-1.093 0.483-1.093 1.080s0.489 1.080 1.093 1.080z"></path>
</symbol>
</defs>
</svg>
