<svg aria-hidden="true" style="position: absolute; width: 0; height: 0; overflow: hidden;" version="1.1" xmlns="http://www.w3.org/2000/svg" xmlns:xlink="http://www.w3.org/1999/xlink">
<defs>
<svg id="vector1" width="328" height="237" viewBox="0 0 328 237" fill="none" xmlns="http://www.w3.org/2000/svg">
<path fill-rule="evenodd" clip-rule="evenodd" d="M191.271 217.832C156.654 227.513 122.202 245.333 88.5115 232.322C48.6647 216.934 6.73391 187.073 1.29455 144.465C-4.01692 102.859 34.9649 71.5153 64.2074 41.9405C85.8407 20.0614 112.357 4.29169 142.934 1.2165C170.197 -1.5255 192.625 16.2362 218.174 26.4556C255.345 41.3233 309.165 35.984 323.732 73.5331C338.293 111.067 304.521 150.06 277.532 179.46C255.36 203.614 222.779 209.02 191.271 217.832Z" fill="#521B9A"/>
</svg>
<svg id="vector2" width="284" height="262" viewBox="0 0 284 262" fill="none" xmlns="http://www.w3.org/2000/svg">
<path fill-rule="evenodd" clip-rule="evenodd" d="M270.304 53.4729C292.685 84.8398 281.454 131.658 268.872 169.53C256.322 207.309 236.498 246.87 201.953 259.217C169.401 270.852 140.3 239.595 108.311 226.919C76.3833 214.267 36.6848 217.231 17.6597 186.186C-3.13601 152.251 -4.90938 105.178 10.6275 67.5159C25.365 31.7917 59.1206 8.72445 93.8602 1.47235C122.438 -4.49334 144.069 25.5776 172.038 33.8206C205.45 43.6677 248.908 23.4883 270.304 53.4729Z" fill="#CA0C7A"/>
</svg>
<svg  id="vector3" width="254" height="250" viewBox="0 0 254 250" fill="none" xmlns="http://www.w3.org/2000/svg">
<path fill-rule="evenodd" clip-rule="evenodd" d="M149.081 0.0370798C177.396 -1.03435 200.487 21.2983 218.503 43.0904C234.64 62.6106 237.787 87.3009 241.859 112.264C247.221 145.131 264.097 180.656 245.452 208.29C225.156 238.372 185.393 251.956 149.081 249.774C114.388 247.688 89.1488 220.927 63.6769 197.363C36.6894 172.397 -4.69428 148.599 0.435043 112.264C5.55384 76.0022 55.449 70.2665 84.7401 48.152C106.959 31.3772 121.225 1.09117 149.081 0.0370798Z" fill="#9A5FBD"/>
</svg>
</defs>
</svg>
